<svg width="182" height="104" viewBox="0 0 182 104" fill="none" xmlns="http://www.w3.org/2000/svg">
<g clip-path="url(#clip0_3797_42734)">
<path d="M45.5 37L4.5 67" stroke="#FF3A44" stroke-width="8"/>
<path fill-rule="evenodd" clip-rule="evenodd" d="M58 28H100L92 76H50L58 28ZM86 40H68L64 64H82L86 40Z" fill="#FF3A44"/>
<path d="M45.5 37L4.5 67" stroke="#FF3A44" stroke-width="8"/>
<path d="M94 39L59 65" stroke="#FF3A44" stroke-width="8"/>
<path fill-rule="evenodd" clip-rule="evenodd" d="M50 28H8L5.33333 44H17.3333L18 40H28H36H48L50 28ZM44.6667 60H32.6667L32 64H20H14H2L0 76H42L44.6667 60Z" fill="#FF3A44"/>
<path d="M106 40L108 28H132L124 76H112L118 40H106Z" fill="#FF3A44"/>
<path d="M140 28L134 64H176L182 28H170L166 52H148L152 28H140Z" fill="#FF3A44"/>
<path d="M162 76H174L182 28H170L166 52L162 76Z" fill="#FF3A44"/>
<path d="M48.272 7.264C49.072 7.264 49.7973 7.45067 50.448 7.824C51.1093 8.18667 51.6267 8.704 52 9.376C52.3733 10.0373 52.56 10.8107 52.56 11.696C52.56 12.5813 52.3733 13.36 52 14.032C51.6267 14.6933 51.1093 15.2107 50.448 15.584C49.7973 15.9467 49.072 16.128 48.272 16.128C47.1733 16.128 46.3093 15.7813 45.68 15.088V19.104H43.184V7.392H45.568V8.384C46.1867 7.63733 47.088 7.264 48.272 7.264ZM47.84 14.08C48.48 14.08 49.0027 13.8667 49.408 13.44C49.824 13.0027 50.032 12.4213 50.032 11.696C50.032 10.9707 49.824 10.3947 49.408 9.968C49.0027 9.53067 48.48 9.312 47.84 9.312C47.2 9.312 46.672 9.53067 46.256 9.968C45.8507 10.3947 45.648 10.9707 45.648 11.696C45.648 12.4213 45.8507 13.0027 46.256 13.44C46.672 13.8667 47.2 14.08 47.84 14.08ZM57.5128 7.264C58.8461 7.264 59.8701 7.584 60.5848 8.224C61.2994 8.85333 61.6568 9.808 61.6568 11.088V16H59.3208V14.928C58.8514 15.728 57.9768 16.128 56.6968 16.128C56.0354 16.128 55.4594 16.016 54.9688 15.792C54.4888 15.568 54.1208 15.2587 53.8648 14.864C53.6088 14.4693 53.4808 14.0213 53.4808 13.52C53.4808 12.72 53.7794 12.0907 54.3768 11.632C54.9848 11.1733 55.9181 10.944 57.1768 10.944H59.1608C59.1608 10.4 58.9954 9.984 58.6648 9.696C58.3341 9.39733 57.8381 9.248 57.1768 9.248C56.7181 9.248 56.2648 9.32267 55.8168 9.472C55.3794 9.61067 55.0061 9.80267 54.6968 10.048L53.8008 8.304C54.2701 7.97333 54.8301 7.71733 55.4808 7.536C56.1421 7.35467 56.8194 7.264 57.5128 7.264ZM57.3208 14.448C57.7474 14.448 58.1261 14.352 58.4568 14.16C58.7874 13.9573 59.0221 13.664 59.1608 13.28V12.4H57.4488C56.4248 12.4 55.9128 12.736 55.9128 13.408C55.9128 13.728 56.0354 13.984 56.2808 14.176C56.5368 14.3573 56.8834 14.448 57.3208 14.448ZM68.801 7.984C69.6223 7.984 70.3423 8.15467 70.961 8.496C71.5797 8.82667 72.0543 9.296 72.385 9.904C72.7263 10.512 72.897 11.216 72.897 12.016C72.897 12.8373 72.6943 13.568 72.289 14.208C71.8943 14.8373 71.3397 15.328 70.625 15.68C69.9103 16.0213 69.0997 16.192 68.193 16.192C66.689 16.192 65.505 15.712 64.641 14.752C63.7877 13.7813 63.361 12.3627 63.361 10.496C63.361 8.768 63.7343 7.392 64.481 6.368C65.2383 5.33333 66.3957 4.656 67.953 4.336L72.049 3.52L72.385 5.664L68.769 6.384C67.7877 6.576 67.057 6.896 66.577 7.344C66.1077 7.792 65.8303 8.42667 65.745 9.248C66.1183 8.84267 66.5663 8.53333 67.089 8.32C67.6117 8.096 68.1823 7.984 68.801 7.984ZM68.209 14.256C68.849 14.256 69.361 14.048 69.745 13.632C70.1397 13.216 70.337 12.688 70.337 12.048C70.337 11.3973 70.1397 10.88 69.745 10.496C69.361 10.112 68.849 9.92 68.209 9.92C67.5583 9.92 67.0357 10.112 66.641 10.496C66.2463 10.88 66.049 11.3973 66.049 12.048C66.049 12.6987 66.2517 13.232 66.657 13.648C67.0623 14.0533 67.5797 14.256 68.209 14.256ZM78.6226 16.128C77.716 16.128 76.9 15.9413 76.1746 15.568C75.46 15.184 74.9 14.656 74.4946 13.984C74.0893 13.312 73.8866 12.5493 73.8866 11.696C73.8866 10.8427 74.0893 10.08 74.4946 9.408C74.9 8.736 75.46 8.21333 76.1746 7.84C76.9 7.456 77.716 7.264 78.6226 7.264C79.5293 7.264 80.34 7.456 81.0546 7.84C81.7693 8.21333 82.3293 8.736 82.7346 9.408C83.14 10.08 83.3426 10.8427 83.3426 11.696C83.3426 12.5493 83.14 13.312 82.7346 13.984C82.3293 14.656 81.7693 15.184 81.0546 15.568C80.34 15.9413 79.5293 16.128 78.6226 16.128ZM78.6226 14.08C79.2626 14.08 79.7853 13.8667 80.1906 13.44C80.6066 13.0027 80.8146 12.4213 80.8146 11.696C80.8146 10.9707 80.6066 10.3947 80.1906 9.968C79.7853 9.53067 79.2626 9.312 78.6226 9.312C77.9826 9.312 77.4546 9.53067 77.0386 9.968C76.6226 10.3947 76.4146 10.9707 76.4146 11.696C76.4146 12.4213 76.6226 13.0027 77.0386 13.44C77.4546 13.8667 77.9826 14.08 78.6226 14.08ZM91.9789 9.44H89.0669V16H86.5869V9.44H83.6749V7.392H91.9789V9.44ZM96.6534 7.264C97.9867 7.264 99.0107 7.584 99.7254 8.224C100.44 8.85333 100.797 9.808 100.797 11.088V16H98.4614V14.928C97.992 15.728 97.1174 16.128 95.8374 16.128C95.176 16.128 94.6 16.016 94.1094 15.792C93.6294 15.568 93.2614 15.2587 93.0054 14.864C92.7494 14.4693 92.6214 14.0213 92.6214 13.52C92.6214 12.72 92.92 12.0907 93.5174 11.632C94.1254 11.1733 95.0587 10.944 96.3174 10.944H98.3014C98.3014 10.4 98.136 9.984 97.8054 9.696C97.4747 9.39733 96.9787 9.248 96.3174 9.248C95.8587 9.248 95.4054 9.32267 94.9574 9.472C94.52 9.61067 94.1467 9.80267 93.8374 10.048L92.9414 8.304C93.4107 7.97333 93.9707 7.71733 94.6214 7.536C95.2827 7.35467 95.96 7.264 96.6534 7.264ZM96.4614 14.448C96.888 14.448 97.2667 14.352 97.5974 14.16C97.928 13.9573 98.1627 13.664 98.3014 13.28V12.4H96.5894C95.5654 12.4 95.0534 12.736 95.0534 13.408C95.0534 13.728 95.176 13.984 95.4214 14.176C95.6774 14.3573 96.024 14.448 96.4614 14.448ZM111.334 11.728C111.334 11.76 111.318 11.984 111.286 12.4H104.774C104.891 12.9333 105.168 13.3547 105.606 13.664C106.043 13.9733 106.587 14.128 107.238 14.128C107.686 14.128 108.08 14.064 108.422 13.936C108.774 13.7973 109.099 13.584 109.398 13.296L110.726 14.736C109.915 15.664 108.731 16.128 107.174 16.128C106.203 16.128 105.344 15.9413 104.598 15.568C103.851 15.184 103.275 14.656 102.87 13.984C102.464 13.312 102.262 12.5493 102.262 11.696C102.262 10.8533 102.459 10.096 102.854 9.424C103.259 8.74133 103.808 8.21333 104.502 7.84C105.206 7.456 105.99 7.264 106.854 7.264C107.696 7.264 108.459 7.44533 109.142 7.808C109.824 8.17067 110.358 8.69333 110.742 9.376C111.136 10.048 111.334 10.832 111.334 11.728ZM106.87 9.152C106.304 9.152 105.83 9.312 105.446 9.632C105.062 9.952 104.827 10.3893 104.742 10.944H108.982C108.896 10.4 108.662 9.968 108.278 9.648C107.894 9.31733 107.424 9.152 106.87 9.152ZM121.647 16V10.848L119.071 15.168H118.015L115.503 10.832V16H113.247V7.392H115.855L118.607 12.368L121.535 7.392H123.871L123.903 16H121.647ZM134.921 16.128C134.004 16.128 133.177 15.9413 132.441 15.568C131.716 15.184 131.145 14.656 130.729 13.984C130.324 13.312 130.121 12.5493 130.121 11.696C130.121 10.8427 130.324 10.08 130.729 9.408C131.145 8.736 131.716 8.21333 132.441 7.84C133.177 7.456 134.004 7.264 134.921 7.264C135.828 7.264 136.617 7.456 137.289 7.84C137.972 8.21333 138.468 8.752 138.777 9.456L136.841 10.496C136.393 9.70667 135.748 9.312 134.905 9.312C134.254 9.312 133.716 9.52533 133.289 9.952C132.862 10.3787 132.649 10.96 132.649 11.696C132.649 12.432 132.862 13.0133 133.289 13.44C133.716 13.8667 134.254 14.08 134.905 14.08C135.758 14.08 136.404 13.6853 136.841 12.896L138.777 13.952C138.468 14.6347 137.972 15.168 137.289 15.552C136.617 15.936 135.828 16.128 134.921 16.128Z" fill="#333333"/>
<path d="M83.096 93.44H78.68V100H76.2V91.392H83.096V93.44ZM88.0914 100.128C87.1847 100.128 86.3687 99.9413 85.6434 99.568C84.9287 99.184 84.3687 98.656 83.9634 97.984C83.558 97.312 83.3554 96.5493 83.3554 95.696C83.3554 94.8427 83.558 94.08 83.9634 93.408C84.3687 92.736 84.9287 92.2133 85.6434 91.84C86.3687 91.456 87.1847 91.264 88.0914 91.264C88.998 91.264 89.8087 91.456 90.5234 91.84C91.238 92.2133 91.798 92.736 92.2034 93.408C92.6087 94.08 92.8114 94.8427 92.8114 95.696C92.8114 96.5493 92.6087 97.312 92.2034 97.984C91.798 98.656 91.238 99.184 90.5234 99.568C89.8087 99.9413 88.998 100.128 88.0914 100.128ZM88.0914 98.08C88.7314 98.08 89.254 97.8667 89.6594 97.44C90.0754 97.0027 90.2834 96.4213 90.2834 95.696C90.2834 94.9707 90.0754 94.3947 89.6594 93.968C89.254 93.5307 88.7314 93.312 88.0914 93.312C87.4514 93.312 86.9234 93.5307 86.5074 93.968C86.0914 94.3947 85.8834 94.9707 85.8834 95.696C85.8834 96.4213 86.0914 97.0027 86.5074 97.44C86.9234 97.8667 87.4514 98.08 88.0914 98.08ZM104.051 97.952V101.856H101.731V100H95.6831V101.856H93.3631V97.952H93.7151C94.2485 97.9413 94.6165 97.6267 94.8191 97.008C95.0218 96.3893 95.1498 95.5093 95.2031 94.368L95.3151 91.392H102.819V97.952H104.051ZM97.4591 94.544C97.4271 95.4187 97.3578 96.1333 97.2511 96.688C97.1551 97.2427 96.9685 97.664 96.6911 97.952H100.323V93.44H97.5071L97.4591 94.544ZM108.966 91.264C110.299 91.264 111.323 91.584 112.038 92.224C112.753 92.8533 113.11 93.808 113.11 95.088V100H110.774V98.928C110.305 99.728 109.43 100.128 108.15 100.128C107.489 100.128 106.913 100.016 106.422 99.792C105.942 99.568 105.574 99.2587 105.318 98.864C105.062 98.4693 104.934 98.0213 104.934 97.52C104.934 96.72 105.233 96.0907 105.83 95.632C106.438 95.1733 107.371 94.944 108.63 94.944H110.614C110.614 94.4 110.449 93.984 110.118 93.696C109.787 93.3973 109.291 93.248 108.63 93.248C108.171 93.248 107.718 93.3227 107.27 93.472C106.833 93.6107 106.459 93.8027 106.15 94.048L105.254 92.304C105.723 91.9733 106.283 91.7173 106.934 91.536C107.595 91.3547 108.273 91.264 108.966 91.264ZM108.774 98.448C109.201 98.448 109.579 98.352 109.91 98.16C110.241 97.9573 110.475 97.664 110.614 97.28V96.4H108.902C107.878 96.4 107.366 96.736 107.366 97.408C107.366 97.728 107.489 97.984 107.734 98.176C107.99 98.3573 108.337 98.448 108.774 98.448Z" fill="#333333"/>
</g>
<defs>
<clipPath id="clip0_3797_42734">
<rect width="182" height="104" fill="white"/>
</clipPath>
</defs>
</svg>
