<svg width="20" height="20" viewBox="0 0 20 20" fill="none" xmlns="http://www.w3.org/2000/svg">
<path d="M17.0707 2.92929C15.181 1.03956 12.6726 0 10 0C7.32744 0 4.81902 1.03956 2.92929 2.92929C1.03956 4.81902 0 7.32744 0 10C0 12.6726 1.03956 15.181 2.92929 17.0707C4.81902 18.9604 7.32744 20 10 20C12.6726 20 15.181 18.9604 17.0707 17.0707C18.9604 15.181 20 12.6726 20 10C20 7.32744 18.9604 4.81902 17.0707 2.92929ZM16.2668 16.2668C14.5918 17.9419 12.3653 18.8636 10 18.8636C7.63468 18.8636 5.40825 17.9419 3.73316 16.2668C0.277778 12.8114 0.277778 7.18855 3.73316 3.73316C5.40825 2.05808 7.63468 1.13636 10 1.13636C12.3653 1.13636 14.5918 2.05808 16.2668 3.73316C19.7222 7.18855 19.7222 12.8114 16.2668 16.2668Z" fill="#404145"/>
<path d="M14.4067 5.59341C14.1836 5.37035 13.8259 5.37035 13.6028 5.59341L10.0001 9.19611L6.39744 5.59341C6.17438 5.37035 5.81663 5.37035 5.59357 5.59341C5.3705 5.81648 5.3705 6.17422 5.59357 6.39729L9.19626 9.99998L5.59357 13.6027C5.3705 13.8257 5.3705 14.1835 5.59357 14.4065C5.703 14.516 5.8503 14.5749 5.9934 14.5749C6.1365 14.5749 6.2838 14.5202 6.39323 14.4065L9.99592 10.8039L13.5986 14.4065C13.708 14.516 13.8554 14.5749 13.9985 14.5749C14.1458 14.5749 14.2889 14.5202 14.3983 14.4065C14.6213 14.1835 14.6213 13.8257 14.3983 13.6027L10.804 9.99998L14.4067 6.39729C14.6298 6.17422 14.6298 5.81648 14.4067 5.59341Z" fill="#404145"/>
</svg>
