<svg width="13" height="8" viewBox="0 0 13 8" fill="none" xmlns="http://www.w3.org/2000/svg">
<path fill-rule="evenodd" clip-rule="evenodd" d="M7.02762 7.2796C7.02762 7.2796 7.25863 7.2539 7.37695 7.12668C7.48526 7.01011 7.4815 6.79014 7.4815 6.79014C7.4815 6.79014 7.4671 5.76295 7.94352 5.61129C8.41305 5.46213 9.01592 6.60463 9.65574 7.04396C10.139 7.37611 10.5059 7.30341 10.5059 7.30341L12.2156 7.2796C12.2156 7.2796 13.1096 7.22445 12.6858 6.52065C12.6507 6.46299 12.4385 5.99985 11.4149 5.0485C10.3425 4.05265 10.4865 4.21371 11.7774 2.49088C12.5637 1.44176 12.878 0.801255 12.7797 0.527381C12.6864 0.265415 12.1079 0.33498 12.1079 0.33498L10.1835 0.346888C10.1835 0.346888 10.0407 0.327459 9.93495 0.390758C9.83165 0.452802 9.76467 0.597573 9.76467 0.597573C9.76467 0.597573 9.46041 1.40917 9.05411 2.09981C8.19706 3.55629 7.85462 3.63338 7.71439 3.54313C7.38822 3.33193 7.46961 2.69581 7.46961 2.24395C7.46961 0.831964 7.68371 0.24348 7.05329 0.0911882C6.84419 0.0404243 6.69019 0.00720849 6.15493 0.00156806C5.46816 -0.0053258 4.8872 0.00407492 4.5579 0.16514C4.33879 0.272309 4.16976 0.511713 4.27305 0.525501C4.40014 0.542422 4.68812 0.603214 4.84087 0.811283C5.03807 1.08014 5.03119 1.68304 5.03119 1.68304C5.03119 1.68304 5.1445 3.34509 4.76637 3.55128C4.50719 3.69291 4.1516 3.404 3.38721 2.08226C2.99593 1.40541 2.70044 0.657111 2.70044 0.657111C2.70044 0.657111 2.64347 0.517354 2.54143 0.442148C2.4181 0.351275 2.24594 0.323072 2.24594 0.323072L0.417279 0.33498C0.417279 0.33498 0.142448 0.342501 0.0416556 0.462203C-0.047868 0.568118 0.0347692 0.788094 0.0347692 0.788094C0.0347692 0.788094 1.46652 4.14164 3.08796 5.83189C4.5748 7.38113 6.2626 7.2796 6.2626 7.2796H7.02762Z" fill="white"/>
</svg>
